<svg width="47" height="20" viewBox="0 0 47 20" fill="none" xmlns="http://www.w3.org/2000/svg">
<g id="Layer_1" clip-path="url(#clip0_220_4967)">
<path id="Vector" d="M20.0312 9.99953C20.0312 8.76963 19.7974 7.59597 19.3909 6.50762C19.2829 10.0895 15.6363 12.8634 13.4956 14.6989H18.8548C19.604 13.2974 20.0312 11.6991 20.0312 9.99953ZM16.1573 2.11202C14.4608 0.793063 12.3332 0 10.0161 0C4.48413 0 0 4.47715 0 9.99953C0 15.5219 4.48413 19.9991 10.0161 19.9991C12.5492 19.9991 14.8551 19.0532 16.6193 17.5046H9.36823L9.3457 15.3785C13.7153 11.5866 16.393 9.0218 16.393 6.54418C16.393 5.62362 16.0419 4.46215 14.4617 4.46215C13.2102 4.46215 12.0028 5.18584 12.2225 8.21092H9.67619C9.03962 4.70401 10.9493 1.91985 14.5931 1.91985C15.1584 1.91985 15.6804 1.98734 16.1573 2.11202Z" fill="#432711"/>
<path id="Vector_2" d="M29.3214 6.91136H31.6903C31.771 5.11243 31.1645 2.26172 27.2559 2.26172C24.3801 2.26172 22.2948 3.98002 22.2948 7.55912C22.2948 8.0447 22.3145 10.5514 22.3145 12.1075C22.3145 15.9894 25.0082 16.8387 27.2756 16.8387C28.6323 16.8387 30.5965 16.535 31.5072 15.5451V9.3571H27.0521V11.6013H29.037V14.3311C27.5385 14.8364 24.8044 15.0388 24.8044 11.6013V7.55818C24.8044 5.15274 25.918 4.32312 27.1535 4.32312C28.3891 4.32312 29.3205 4.96994 29.3205 6.91042L29.3214 6.91136ZM46.9434 12.9156C47.0448 7.37632 40.6867 9.21555 40.7468 6.12298C40.7674 5.03181 41.4763 4.32406 42.6302 4.32406C43.8648 4.32406 44.5934 5.0515 44.5737 6.9526H46.9021C46.9632 5.2343 46.5576 2.30203 42.7109 2.30203C40.3215 2.30203 38.3573 3.47475 38.3169 6.08267C38.2155 11.3998 44.6141 9.66083 44.5136 12.8753C44.4732 14.1895 43.5212 14.7754 42.448 14.7754C41.1928 14.7754 40.1806 14.048 40.3825 11.8638H38.0334C37.7705 14.7548 39.0465 16.8171 42.4274 16.8171C45.2826 16.8171 46.9021 15.2395 46.9425 12.9146L46.9434 12.9156ZM36.2467 16.6353H33.8582V2.48389H36.2467V16.6353ZM36.2467 16.6353H33.8582V2.48389H36.2467V16.6353Z" fill="#432711"/>
</g>
<defs>
<clipPath id="clip0_220_4967">
<rect width="46.9444" height="20" fill="white"/>
</clipPath>
</defs>
</svg>
