<svg width="56" height="56" viewBox="0 0 56 56" fill="none" xmlns="http://www.w3.org/2000/svg">
<g id="_&#208;&#161;&#208;&#187;&#208;&#190;&#208;&#185;_1" clip-path="url(#clip0_220_4499)">
<path id="Vector" d="M29.9532 56C30.9397 55.8573 31.9301 55.7369 32.9126 55.5668C43.4391 53.7396 52.3158 45.7214 54.9612 35.3945C57.6118 25.0478 55.1784 15.9093 47.7708 8.22625C43.5294 3.82714 38.2583 1.23819 32.1943 0.318058C17.709 -1.87954 3.87512 7.51684 0.690742 21.7429C0.40946 22.9982 0.296947 24.2913 0.102012 25.5662C0.083696 25.6879 0.033981 25.8044 -0.00134277 25.9235C-0.00134277 27.3083 -0.00134277 28.6944 -0.00134277 30.0791C0.0810794 30.6878 0.155652 31.2964 0.244616 31.9037C1.03744 37.2531 3.13332 42.0226 6.65785 46.1298C11.0262 51.2187 16.508 54.3927 23.12 55.5733C24.045 55.7382 24.9791 55.8586 25.908 56C27.2569 56 28.6044 56 29.9532 56ZM2.82718 28.0334C2.81671 14.1005 14.0484 2.83894 27.9633 2.83109C41.8495 2.82323 53.1178 14.0651 53.144 27.9509C53.1701 41.8851 41.9503 53.1506 28.0261 53.1715C14.1033 53.1938 2.83895 41.9545 2.82718 28.0321V28.0334Z" fill="#CFA887"/>
<path id="Vector_2" d="M32.8302 28.0072C30.9646 29.6406 29.1434 31.2361 27.3223 32.8303C25.8832 34.0908 24.4428 35.3486 23.0063 36.613C22.2906 37.2439 22.1834 38.1012 22.7302 38.7281C23.2797 39.3577 24.1366 39.3655 24.8627 38.732C28.4985 35.5567 32.1329 32.3788 35.766 29.1995C36.6125 28.4587 36.6177 27.5504 35.7752 26.8135C32.1434 23.6329 28.5089 20.4563 24.8719 17.281C24.1405 16.6422 23.2954 16.6436 22.7394 17.2692C22.1742 17.904 22.2919 18.7639 23.0403 19.4197C26.1776 22.1696 29.3161 24.9182 32.4547 27.6682C32.5633 27.7637 32.6693 27.8619 32.8328 28.0072H32.8302Z" fill="#CFA887"/>
</g>
<defs>
<clipPath id="clip0_220_4499">
<rect width="56" height="56" fill="white" transform="matrix(1 0 0 -1 0 56)"/>
</clipPath>
</defs>
</svg>
