<svg width="259" height="144" viewBox="0 0 259 144" fill="none" xmlns="http://www.w3.org/2000/svg">
<g clip-path="url(#clip0_180_1734)">
<path d="M0 91.0595H11.9262V6.53442H0V5.08732H16.0179C46.4959 5.08732 59.022 15.3698 59.022 28.3039C59.022 39.7908 47.5793 53.6955 26.5026 64.5802C25.2938 68.4542 23.727 72.2022 21.9273 76.193V91.0685H33.9699V92.5156H0V91.0685V91.0595ZM14.8182 6.53442C25.4192 13.6711 30.478 26.2456 30.478 40.8783C30.478 47.7723 29.2692 55.2685 27.1025 62.6478C42.5205 53.6955 49.1462 41.8491 49.1462 31.5666C49.1462 17.9045 37.8199 6.53442 15.5344 6.53442H14.8092H14.8182ZM21.9273 72.6786C26.7443 61.677 29.0364 50.9092 29.0364 40.8783C29.0364 30.8475 26.7443 22.3716 21.9273 15.4867V72.6876V72.6786Z" fill="#CFA887"/>
<path d="M143.705 91.0595V6.53442H131.779V5.08732H182.733L184.658 0.00898743H186.584L175.23 31.225H173.789L181.408 9.19493C177.075 7.01978 173.216 6.53442 160.932 6.53442H153.706V91.0595H178.758V92.5066H131.779V91.0595H143.705Z" fill="#CFA887"/>
<path d="M63.3286 88.6956L86.5184 5.18619H92.2486L115.94 88.1833C116.361 89.7202 105.957 89.2888 105.366 87.1586L98.2296 60.6883H72.1121L64.6 87.6709M85.247 12.988L72.506 59.1514H97.8536L85.238 12.988H85.247Z" fill="#CFA887"/>
<path d="M249.635 8.47587L227.895 86.5025C226.436 92.0302 214.814 135.623 214.546 135.623C213.229 135.623 213.238 135.704 213.811 134.248C214.375 132.783 226.642 87.2754 227.054 85.8913C227.134 85.7295 227.251 85.361 227.421 84.7947C227.582 84.2284 227.743 83.6172 227.904 82.9611C228.146 82.1522 228.388 81.2983 228.629 80.3995L200.936 8.96124C200.282 7.41527 210.812 7.90962 211.627 9.94095L232.882 65.4161L248.426 9.45559" fill="#CFA887"/>
<path d="M112.537 76.184L116.781 91.0595H128.457V92.5066H94.4871V91.0595H106.413L102.384 76.0582L112.537 76.184Z" fill="#CFA887"/>
<path d="M205.798 21.5088L199.951 6.63329H188.276V5.18619H222.246V6.63329H210.391L216.086 21.6346L205.798 21.5088Z" fill="#CFA887"/>
<path d="M63.7226 90.9876H73.9655V92.5066H53.8647V90.9876H62.3974C74.4042 49.8755 68.647 73.6044 63.7226 90.9876Z" fill="#CFA887"/>
<path d="M249.142 6.7052H238.899V5.18619H259V6.7052H250.172C238.165 47.8172 244.209 24.0884 249.142 6.7052Z" fill="#CFA887"/>
<path d="M214.537 134.176H38.1512V135.623H214.537V134.176Z" fill="#CFA887"/>
<path d="M83.5368 109.324L74.9504 118.339C77.4842 118.339 78.7825 118.716 78.8183 119.48C78.9705 119.957 78.8183 120.469 78.3348 121.017C77.8603 121.565 77.3678 122.069 76.8575 122.518C76.3561 122.968 76.0337 123.318 75.8905 123.552C81.191 121.664 83.2593 121.35 82.0953 122.599C77.1977 124.738 74.4042 125.925 73.7148 126.149C73.0164 126.374 72.3717 126.5 71.7629 126.527C71.154 126.554 70.9392 126.194 71.1182 125.448C75.9173 121.691 77.341 119.948 75.407 120.235C72.1658 120.235 69.05 121.871 66.0684 125.134C63.0779 128.396 61.1081 130.455 60.1322 131.309C59.1652 132.163 55.8972 134.616 50.328 138.67C47.8568 140.315 45.3409 141.555 42.7623 142.373C40.1926 143.2 38.3123 143.703 37.1484 143.892C35.9755 144.081 35.0264 144.009 34.2832 143.676C33.549 143.344 33.1998 142.607 33.2446 141.447C33.2894 140.297 33.7012 139.128 34.4981 137.96C35.295 136.791 36.7902 135.308 38.9928 133.502C43.201 130.167 49.6117 126.689 58.243 123.066L60.3471 122.302C68.7903 120.343 73.7774 117.988 75.2995 115.229L75.7651 114.663C81.4148 109.144 83.5279 109.297 83.5279 109.297L83.5368 109.324ZM35.3756 141.78C35.6531 142.059 36.2978 142.166 37.3185 142.094L41.4013 141.016C47.1943 139.128 52.8261 135.668 58.3057 130.626C63.7853 125.583 66.4176 122.968 66.2206 122.779C66.0236 122.59 65.755 122.527 65.3969 122.599C59.8009 123.264 52.4858 126.581 43.4606 132.567C39.6912 134.778 36.9962 137.322 35.3845 140.216C35.107 140.98 35.098 141.492 35.3756 141.78Z" fill="#CFA887"/>
<path d="M96.3942 116.595C97.5402 116.784 98.1312 117.566 98.1401 118.932C98.1401 120.864 94.3975 122.231 86.9034 123.048C85.3365 123.498 84.5665 124.046 84.6023 124.693C84.6381 125.34 84.9246 125.727 85.4618 125.862C85.9991 125.997 86.581 126.087 87.1899 126.14C87.7987 126.194 90.0998 125.817 94.102 125.017C98.0953 124.226 100.074 123.947 100.02 124.19C99.9756 124.433 98.0774 125.044 94.3438 126.006C90.6102 126.967 87.548 127.363 85.1664 127.174C83.5637 126.725 82.928 125.817 83.2503 124.451L83.4204 123.498H82.0147C81.9073 123.156 82.1401 122.851 82.74 122.554C83.3399 122.258 86.7153 120.442 92.8933 117.071C94.0841 116.55 95.2571 116.388 96.4031 116.577L96.3942 116.595ZM90.4221 119.84C86.0617 121.709 86.2677 122.195 91.0578 121.278C94.9168 120.325 96.8418 119.498 96.8418 118.806C96.8418 118.114 96.0002 117.862 94.3169 118.042L90.4221 119.84Z" fill="#CFA887"/>
<path d="M108.759 116.694C111.356 116.101 113.119 115.921 114.051 116.155C114.982 116.388 115.474 116.775 115.537 117.314C115.591 117.853 115.215 118.698 114.4 119.84C112.17 121.682 110.335 122.356 108.884 121.871L108.043 121.449C107.506 120.783 107.729 119.696 108.696 118.177C107.711 118.572 106.682 119.049 105.607 119.615C102.877 121.062 101.417 122.285 101.229 123.264C100.432 124.873 100.898 125.637 102.635 125.565C112.367 123.678 117.175 123.147 117.068 123.983C108.356 126.122 103.208 127.147 101.605 127.066C100.002 126.985 99.1966 126.563 99.1877 125.817C98.6684 124.001 99.4831 122.177 101.641 120.334C103.799 118.491 106.171 117.278 108.759 116.694ZM108.678 118.258C109.744 118.258 110.478 118.626 110.89 119.354C107.864 120.801 107.891 121.26 110.997 120.73C112.332 120.002 113.209 119.291 113.648 118.608C114.086 117.925 113.818 117.566 112.86 117.53C111.902 117.494 110.505 117.736 108.687 118.258H108.678Z" fill="#CFA887"/>
<path d="M117.659 116.631L137.894 117.035C138.44 117.413 138.395 117.808 137.751 118.213C137.106 118.617 134.733 118.77 130.624 118.653L127.114 118.572C126.219 118.626 123.882 118.393 120.112 117.853C121.196 119.022 121.733 120.918 121.733 123.534C124.804 121.098 126.953 119.885 128.188 119.885C128.69 119.93 128.833 120.19 128.609 120.685L119.709 127.192C119.145 127.183 118.877 126.913 118.886 126.392L120.103 124.765C120.103 120.981 119.02 118.402 116.862 117.035C116.817 116.685 117.086 116.55 117.659 116.631Z" fill="#CFA887"/>
<path d="M147.743 116.523C150.859 116.029 152.488 116.604 152.64 118.258C153.061 119.678 150.787 121.592 145.809 123.983C140.831 126.374 137.84 127.57 136.846 127.552C135.853 127.534 135.208 127.354 134.921 127.012C134.635 126.671 134.563 126.042 134.724 125.125C134.877 124.208 136.309 122.671 139.013 120.514C141.717 118.357 144.627 117.026 147.743 116.532V116.523ZM137.222 123.92C136.005 125.403 136.354 125.988 138.261 125.664C140.177 125.34 144.081 123.408 149.963 119.876L150.402 119.471C150.975 118.572 150.518 118.024 149.032 117.826C147.546 117.629 145.513 118.222 142.926 119.615C140.338 120.999 138.431 122.437 137.213 123.92H137.222Z" fill="#CFA887"/>
<path d="M173.825 109.324L165.238 118.339C167.772 118.339 169.07 118.716 169.106 119.48C169.258 119.957 169.106 120.469 168.623 121.017C168.148 121.565 167.656 122.069 167.145 122.518C166.644 122.968 166.322 123.318 166.178 123.552C171.479 121.664 173.547 121.35 172.383 122.599C167.486 124.738 164.692 125.925 164.003 126.149C163.304 126.374 162.66 126.5 162.051 126.527C161.442 126.554 161.227 126.194 161.406 125.448C166.205 121.691 167.629 119.948 165.695 120.235C162.454 120.235 159.338 121.871 156.356 125.134C153.366 128.396 151.396 130.455 150.42 131.309C149.453 132.163 146.185 134.616 140.616 138.67C138.145 140.315 135.629 141.555 133.05 142.373C130.48 143.2 128.6 143.703 127.436 143.892C126.263 144.081 125.314 144.009 124.571 143.676C123.837 143.344 123.488 142.607 123.532 141.447C123.577 140.297 123.989 139.128 124.786 137.96C125.583 136.791 127.078 135.308 129.281 133.502C133.489 130.167 139.9 126.689 148.531 123.066L150.635 122.302C159.078 120.343 164.065 117.988 165.587 115.229L166.053 114.663C171.703 109.144 173.816 109.297 173.816 109.297L173.825 109.324ZM125.663 141.78C125.941 142.059 126.586 142.166 127.606 142.094L131.689 141.016C137.482 139.128 143.114 135.668 148.593 130.626C154.073 125.583 156.705 122.968 156.508 122.779C156.311 122.59 156.043 122.527 155.685 122.599C150.089 123.264 142.774 126.581 133.748 132.567C129.979 134.778 127.284 137.322 125.672 140.216C125.395 140.98 125.386 141.492 125.663 141.78Z" fill="#CFA887"/>
<path d="M183.987 116.496C185.321 116.37 186.234 117.125 186.718 118.752C186.351 119.795 185.715 120.694 184.802 121.458H185.16C186.763 120.235 187.694 120.055 187.953 120.927C184.829 122.689 183.172 124.037 182.993 124.972C182.814 125.907 183.307 126.185 184.488 125.808L189.807 123.651C190.326 123.804 190.443 124.1 190.165 124.541C186.969 126.302 184.587 127.183 183.011 127.183C181.552 127.012 181.31 125.988 182.295 124.1C177.737 126.158 174.756 127.183 173.35 127.183C172.383 126.833 172.025 125.952 172.276 124.541C175.499 119.264 179.403 116.577 183.969 116.496H183.987ZM176.502 121.574C174.254 123.705 173.323 125.035 173.708 125.556C174.084 126.078 175.642 125.745 178.364 124.55C181.095 123.363 182.993 121.817 184.077 119.912C185.088 118.662 184.748 117.997 183.065 117.925C180.934 118.222 178.749 119.435 176.502 121.565V121.574Z" fill="#CFA887"/>
<path d="M207.123 116.712C207.938 116.406 208.43 116.478 208.6 116.937C208.77 117.395 206.317 120.064 201.241 124.945C201.044 125.538 201.357 125.718 202.19 125.493C205.699 124.307 207.839 123.642 208.627 123.48C209.415 123.318 209.809 123.426 209.809 123.804C209.612 124.469 208.045 125.296 205.117 126.284C202.19 127.273 200.354 127.597 199.629 127.237C198.904 126.877 198.805 126.113 199.333 124.945L200.766 122.662L195.34 122.051C194.024 122.743 192.967 123.561 192.162 124.523C191.365 125.475 190.747 125.997 190.317 126.06C189.887 126.131 189.726 125.754 189.825 124.936C191.087 123.246 192.932 121.413 195.367 119.435C197.802 117.458 199.521 116.379 200.524 116.217C201.527 116.047 201.536 116.559 200.56 117.763C200.014 118.204 199.378 118.653 198.644 119.139L197.149 120.343L199.333 120.999C201.545 121.278 204.15 119.849 207.141 116.712H207.123Z" fill="#CFA887"/>
</g>
<defs>
<clipPath id="clip0_180_1734">
<rect width="259" height="144" fill="white"/>
</clipPath>
</defs>
</svg>
