<svg width="35" height="35" viewBox="0 0 35 35" fill="none" xmlns="http://www.w3.org/2000/svg">
<g id="user">
<path id="Path" d="M28.1633 25.9792L22.5307 24.5998L22.0709 22.5307C23.4503 21.1512 24.3699 19.0821 24.5998 16.6681C25.0596 16.6681 25.6344 16.5531 25.7493 15.6335L26.3241 12.7597C26.439 12.07 26.2091 11.3803 25.8643 10.9205C25.6344 10.6906 25.4045 10.5756 25.1746 10.4607V7.12705L25.7493 6.55229C26.669 5.51771 27.4736 4.36819 26.2091 2.52895C25.2895 0.919619 23.3353 0 20.9213 0H20.4615C19.197 0 17.1279 0 15.4036 1.14952C10.4607 1.26448 8.04667 3.10371 8.04667 6.89714C8.04667 7.58686 8.50648 9.19619 8.73638 10.1158C8.39152 10.2308 8.16162 10.4607 7.93171 10.6906C7.58686 11.1504 7.35695 11.7251 7.4719 12.2999L7.81676 15.1737C7.93171 16.0933 8.62143 16.783 9.54105 16.898C9.77095 18.8522 10.8055 20.9213 12.185 22.3008L11.6102 24.4849L5.97752 25.8643C2.414 26.7839 0 30.0026 0 33.681V34.0259C0 34.2558 0.229905 34.4857 0.574762 34.4857H33.911C34.2558 34.4857 34.4857 34.2558 34.4857 33.911C34.4857 30.3474 31.7269 26.7839 28.1633 25.9792Z" fill="#432711"/>
</g>
</svg>
