<svg width="57" height="57" viewBox="0 0 57 57" fill="none" xmlns="http://www.w3.org/2000/svg">
<g clip-path="url(#clip0_629_1755)">
<path d="M0 26.5096C0.964215 13.2212 11.2861 2.03649 24.5551 0.263719C44.4175 -2.38994 60.7205 15.3973 56.2578 34.968C53.5586 46.8052 43.192 55.907 31.0498 56.8891L30.9423 55.224C43.3773 54.1025 53.4513 44.5098 55.0737 32.1149C57.6819 12.1895 38.2603 -3.60062 19.2784 3.33343C2.90125 9.316 -3.57718 29.4075 6.43015 43.8381C10.9348 50.3338 18.0451 54.3884 25.9147 55.2355L25.8187 56.8894C12.4039 55.7178 1.38166 44.7623 0.111609 31.3503C0.0833238 31.0516 0.0133766 30.6289 0 30.4044V26.5096Z" fill="#432711"/>
<path d="M29.3802 57H27.5996V55.3308H29.2133C29.5589 55.749 29.3079 56.472 29.3802 57Z" fill="#432711"/>
<path d="M50.9709 22.6147L49.4086 22.9034C46.2598 11.5206 34.6478 4.61937 23.0782 7.57793C15.5629 9.49974 9.61777 15.4502 7.5714 22.9034C7.50192 22.9515 6.3597 22.6775 6.17306 22.6191C6.0242 22.5725 6.00698 22.6977 6.00395 22.4492C5.99728 21.9013 6.74085 20.0213 6.9911 19.4232C11.7433 8.0661 24.845 2.37357 36.4491 6.58873C43.4959 9.14845 49.2836 15.2566 50.9709 22.6147Z" fill="#432711"/>
<path d="M50.9709 34.4106C49.1183 42.4701 42.3712 49.0077 34.4124 51.0706C22.7556 54.092 10.6368 47.768 6.56414 36.471C6.40018 36.0162 5.99882 35.0066 6.00395 34.5761C6.00692 34.3275 6.02434 34.4528 6.17306 34.4062C6.35954 34.3477 7.50198 34.0737 7.5714 34.1218C9.63238 41.5765 15.5556 47.5236 23.0782 49.4473C34.6504 52.4065 46.2552 45.504 49.4081 34.1231L50.9709 34.4106Z" fill="#432711"/>
<path d="M21.0893 14.2689H24.7618C24.912 14.2689 25.8606 14.5502 26.0722 14.6279C27.0188 14.9754 27.8592 15.6724 28.4356 16.4943L28.604 16.4418C29.1357 15.6298 30.0043 14.9667 30.9094 14.6294C31.1833 14.5273 31.9802 14.2689 32.2182 14.2689H35.8907L36.0577 14.4358V17.9968C36.0577 19.6837 34.482 21.6113 32.9811 22.2649C31.4454 22.9336 26.1274 22.9177 24.4888 22.4427C22.7517 21.9391 20.9224 19.848 20.9224 17.9968V14.4358L21.0893 14.2689ZM24.9844 16.0494C24.2958 15.9518 23.4156 16.121 22.703 16.0494V18.3306C22.703 19.2059 24.4469 20.9456 25.3183 20.9456H27.5997V18.6644C27.5997 18.609 27.2475 17.7642 27.1782 17.6395C26.8124 16.981 25.7356 16.1559 24.9844 16.0494ZM34.277 16.0494H31.9956C31.0685 16.0494 29.3803 17.7504 29.3803 18.6644V20.9456H31.6617C32.5371 20.9456 34.277 19.2019 34.277 18.3306V16.0494Z" fill="#432711"/>
<path d="M20.9223 39.0285C21.4429 33.8899 26.9388 34.0209 30.8815 34.3003C33.3429 34.4747 36.0576 36.3405 36.0576 39.0285V42.5894L35.8907 42.7563H32.3294C32.1293 42.7563 31.2395 42.5109 30.9897 42.4267C30.016 42.0984 29.1305 41.3666 28.5444 40.5309L28.376 40.5835C27.837 41.4016 26.9176 42.114 25.9902 42.4267C25.7405 42.5109 24.8507 42.7563 24.6505 42.7563H21.0892L20.9223 42.5894C21.0064 41.4449 20.8084 40.1527 20.9223 39.0285ZM27.5997 36.0796H25.3182C24.4468 36.0796 22.7029 37.8194 22.7029 38.6947V40.9759H24.9844C25.9115 40.9759 27.5997 39.2748 27.5997 38.3608V36.0796ZM34.277 40.9759V38.6947C34.277 37.8194 32.5331 36.0796 31.6617 36.0796H29.3803V38.3608C29.3803 39.2748 31.0684 40.9759 31.9956 40.9759H34.277Z" fill="#432711"/>
<path d="M37.1149 24.3953L40.5092 29.5141V24.3953H42.1786V32.7412H40.5649L37.1706 27.6224V32.7412H35.5012V24.3953H37.1149Z" fill="#432711"/>
<path d="M33.8319 32.7412H32.1625V31.072H28.8239V32.7412H27.1545V27.1216C27.1545 26.9461 27.5992 25.9973 27.7293 25.8046C28.9696 23.969 31.872 23.8499 33.1896 25.6496C33.3235 25.8326 33.8319 26.7484 33.8319 26.8991V32.7412ZM32.1625 29.2916V27.3442C32.1625 27.3006 31.9353 26.8194 31.8793 26.7372C31.3447 25.9533 30.0651 25.791 29.375 26.4487C29.2258 26.5909 28.8239 27.3057 28.8239 27.4555V29.2916H32.1625Z" fill="#432711"/>
<path d="M25.4852 24.3953V26.0645H22.3134C21.8069 26.0645 20.9611 26.9376 20.7501 27.3946C19.7636 29.5313 21.674 31.3638 23.8158 30.9608V29.4029H22.1465V27.7893L22.3134 27.6224H25.4852V32.7412H22.6473C19.4787 32.7412 17.6935 28.5213 19.6521 25.9629C20.0516 25.441 21.4549 24.3953 22.0909 24.3953H25.4852Z" fill="#432711"/>
<path d="M15.3022 24.3953C17.6014 24.7766 17.8093 28.5494 15.4658 29.2404L17.1385 32.7412H15.1909L13.7998 29.9593V32.7412H12.1305V24.3953C13.0924 24.5078 14.3847 24.2432 15.3022 24.3953ZM13.7998 27.6224C16.0191 28.0075 16.1188 25.6521 13.7998 26.0645V27.6224Z" fill="#432711"/>
<path d="M6.31428 24.4218C9.84146 23.8262 10.8013 26.8838 10.4487 29.78C9.98228 33.6124 4.28021 33.557 3.79352 30.0051C3.51005 27.9363 3.73539 24.8572 6.31428 24.4218ZM6.64689 26.0903C6.20493 26.1821 5.61938 26.7378 5.50545 27.174C5.39601 27.593 5.39099 29.225 5.46028 29.6739C5.71896 31.3494 8.53997 31.5916 8.79212 29.3476C8.96639 27.7966 8.75134 25.6531 6.64689 26.0903Z" fill="#432711"/>
<path d="M53.0849 24.3953V26.0645H50.8035C50.7293 26.0645 50.0915 26.3817 49.9759 26.4611C48.7555 27.3 48.47 29.1427 49.5244 30.2367C49.6938 30.4125 50.6144 30.9608 50.8035 30.9608H53.0849V32.7412H51.0261C50.211 32.7412 48.8563 31.9542 48.2968 31.3529C46.5301 29.4541 46.9291 26.3028 49.1541 24.9717C49.3412 24.8598 50.3411 24.3953 50.4696 24.3953H53.0849Z" fill="#432711"/>
<path d="M45.5172 24.3953H43.8479V32.7412H45.5172V24.3953Z" fill="#432711"/>
<path d="M17.7661 17.6229L19.3156 17.7115L19.26 19.3392L17.6322 19.2836C17.5919 18.9592 17.4406 17.7294 17.7661 17.6229Z" fill="#432711"/>
<path d="M37.7982 17.6229L39.3478 17.7115L39.2921 19.3392L37.6643 19.2836C37.624 18.9592 37.4727 17.7294 37.7982 17.6229Z" fill="#432711"/>
<path d="M19.3642 37.7488H17.5836V39.418H19.3642V37.7488Z" fill="#432711"/>
<path d="M39.3963 37.7488H37.6157V39.418H39.3963V37.7488Z" fill="#432711"/>
</g>
<defs>
<clipPath id="clip0_629_1755">
<rect width="57" height="57" fill="white"/>
</clipPath>
</defs>
</svg>
