<svg width="24" height="23" viewBox="0 0 24 23" fill="none" xmlns="http://www.w3.org/2000/svg">
<path id="Star 1" d="M11.8084 0.743512C11.9679 0.252823 12.6621 0.252824 12.8215 0.743513L15.1848 8.01696C15.2561 8.23641 15.4606 8.38498 15.6913 8.38498H23.3391C23.855 8.38498 24.0695 9.0452 23.6521 9.34846L17.465 13.8437C17.2783 13.9793 17.2002 14.2197 17.2715 14.4392L19.6348 21.7126C19.7942 22.2033 19.2326 22.6113 18.8152 22.3081L12.628 17.8128C12.4413 17.6772 12.1886 17.6772 12.0019 17.8128L5.81474 22.3081C5.39733 22.6113 4.83572 22.2033 4.99515 21.7126L7.35844 14.4392C7.42974 14.2197 7.35163 13.9793 7.16496 13.8437L0.977796 9.34846C0.560391 9.0452 0.774909 8.38498 1.29085 8.38498H8.93861C9.16935 8.38498 9.37384 8.23641 9.44514 8.01696L11.8084 0.743512Z" fill="#432711"/>
</svg>
