<svg width="43" height="43" viewBox="0 0 43 43" fill="none" xmlns="http://www.w3.org/2000/svg">
<g id="Telegram">
<path id="Combined-Shape" fill-rule="evenodd" clip-rule="evenodd" d="M0.268799 21.8218C0.268799 33.48 9.71959 42.9308 21.3777 42.9308C33.0359 42.9308 42.4867 33.48 42.4867 21.8218C42.4867 10.1637 33.0359 0.712891 21.3777 0.712891C9.71959 0.712891 0.268799 10.1637 0.268799 21.8218ZM17.5077 31.4967L17.8669 26.1159L17.8666 26.1157L27.6549 17.2825C28.0845 16.9013 27.5611 16.7153 26.9908 17.0612L14.9107 24.6824L9.69273 23.0538C8.56588 22.7087 8.55779 21.9344 9.94572 21.3777L30.2789 13.5373C31.2076 13.1157 32.1039 13.7604 31.7494 15.1817L28.2866 31.4995C28.0448 32.659 27.3442 32.9364 26.3735 32.4007L21.0986 28.5036L18.5632 30.969C18.5552 30.9768 18.5472 30.9845 18.5393 30.9922C18.2557 31.2683 18.0211 31.4967 17.5077 31.4967Z" fill="#CFA887"/>
</g>
</svg>
