<svg width="43" height="43" viewBox="0 0 43 43" fill="none" xmlns="http://www.w3.org/2000/svg">
<g id="VK">
<path id="Combined-Shape" fill-rule="evenodd" clip-rule="evenodd" d="M21.5001 0.712891C9.84191 0.712891 0.391113 10.1637 0.391113 21.8218C0.391113 33.48 9.84191 42.9308 21.5001 42.9308C33.1582 42.9308 42.609 33.48 42.609 21.8218C42.609 10.1637 33.1582 0.712891 21.5001 0.712891ZM23.2187 28.4855C23.0106 28.7049 22.6042 28.7492 22.6042 28.7492H21.2585C21.2585 28.7492 18.2895 28.9244 15.674 26.2521C12.8217 23.3367 10.3031 17.5522 10.3031 17.5522C10.3031 17.5522 10.1577 17.1728 10.3152 16.9901C10.4925 16.7836 10.9759 16.7707 10.9759 16.7707L14.1928 16.7501C14.1928 16.7501 14.4956 16.7988 14.7126 16.9555C14.8921 17.0852 14.9923 17.3263 14.9923 17.3263C14.9923 17.3263 15.5121 18.617 16.2004 19.7845C17.545 22.0643 18.1705 22.5627 18.6265 22.3184C19.2916 21.9627 19.0923 19.0959 19.0923 19.0959C19.0923 19.0959 19.1044 18.056 18.7575 17.5922C18.4888 17.2333 17.9822 17.1285 17.7587 17.0993C17.577 17.0755 17.8743 16.6626 18.2597 16.4777C18.839 16.1999 19.861 16.1837 21.0691 16.1956C22.0107 16.2053 22.2816 16.2626 22.6494 16.3502C23.5031 16.5524 23.4764 17.2004 23.4189 18.599C23.4017 19.0173 23.3817 19.5027 23.3817 20.0634C23.3817 20.1894 23.378 20.3237 23.3741 20.4619C23.3542 21.1784 23.3313 21.9989 23.8123 22.3043C24.059 22.46 24.6614 22.327 26.169 19.8148C26.8838 18.6235 27.419 17.2236 27.419 17.2236C27.419 17.2236 27.5368 16.9739 27.7185 16.8669C27.9046 16.7577 28.1557 16.7912 28.1557 16.7912L31.541 16.7707C31.541 16.7707 32.5586 16.6507 32.7227 17.1025C32.8956 17.5749 32.3428 18.6797 30.9596 20.4893C29.6475 22.2063 29.009 22.8385 29.0676 23.3976C29.1104 23.8061 29.5255 24.1757 30.3219 24.9009C31.9846 26.4162 32.4303 27.2134 32.5373 27.4049C32.5462 27.4208 32.5528 27.4325 32.5575 27.4401C33.3031 28.6541 31.7304 28.7492 31.7304 28.7492L28.7229 28.7903C28.7229 28.7903 28.0775 28.9157 27.2274 28.3428C26.782 28.0429 26.3468 27.5532 25.9323 27.0867C25.2993 26.3743 24.7145 25.7161 24.2154 25.8716C23.3773 26.1332 23.4027 27.905 23.4027 27.905C23.4027 27.905 23.4093 28.2844 23.2187 28.4855Z" fill="#CFA887"/>
</g>
</svg>
