<svg width="43" height="43" viewBox="0 0 43 43" fill="none" xmlns="http://www.w3.org/2000/svg">
<g id="WhatsApp">
<path id="Combined-Shape" fill-rule="evenodd" clip-rule="evenodd" d="M0.513184 21.8218C0.513184 33.48 9.96398 42.9308 21.6221 42.9308C33.2803 42.9308 42.7311 33.48 42.7311 21.8218C42.7311 10.1637 33.2803 0.712891 21.6221 0.712891C9.96398 0.712891 0.513184 10.1637 0.513184 21.8218ZM34.8698 21.0138C34.867 27.9329 29.2384 33.5629 22.3178 33.5657H22.3126C20.2119 33.565 18.1477 33.0379 16.3143 32.0379L9.66031 33.7834L11.441 27.2791C10.3426 25.3755 9.7646 23.2162 9.76554 21.0039C9.7683 14.0832 15.3991 8.45266 22.3177 8.45266C25.6755 8.45411 28.8271 9.7613 31.1969 12.1339C33.5667 14.5064 34.8711 17.66 34.8698 21.0138Z" fill="#CFA887"/>
<path id="Combined-Shape_2" fill-rule="evenodd" clip-rule="evenodd" d="M12.6741 30.8014L16.6227 29.7656L17.0037 29.9917C18.6055 30.9422 20.4416 31.4452 22.3137 31.4459H22.3179C28.0681 31.4459 32.7482 26.7657 32.7505 21.0131C32.7516 18.2254 31.6675 15.6043 29.6977 13.6323C27.728 11.6603 25.1086 10.5737 22.322 10.5728C16.5673 10.5728 11.8872 15.2525 11.8849 21.0046C11.8841 22.976 12.4356 24.8958 13.48 26.5568L13.728 26.9515L12.6741 30.8014ZM28.2119 23.7166C28.4306 23.8223 28.5784 23.8937 28.6414 23.999C28.7198 24.1298 28.7198 24.7577 28.4586 25.4905C28.1971 26.223 26.9442 26.8917 26.3415 26.9817C25.8012 27.0625 25.1174 27.0962 24.3661 26.8574C23.9106 26.7129 23.3265 26.5199 22.5782 26.1968C19.6379 24.9272 17.6509 22.0774 17.2754 21.5388C17.2491 21.5011 17.2307 21.4747 17.2204 21.461L17.2179 21.4576C17.0519 21.2362 15.9398 19.7523 15.9398 18.2166C15.9398 16.7719 16.6494 16.0147 16.9761 15.6661C16.9985 15.6423 17.019 15.6203 17.0375 15.6002C17.3249 15.2862 17.6648 15.2077 17.8738 15.2077C18.0829 15.2077 18.2922 15.2096 18.4749 15.2188C18.4975 15.2199 18.5209 15.2198 18.5452 15.2196C18.7279 15.2186 18.9558 15.2172 19.1806 15.7572C19.2671 15.965 19.3936 16.273 19.527 16.5979C19.7969 17.2549 20.0951 17.9809 20.1476 18.0859C20.226 18.2429 20.2783 18.426 20.1737 18.6354C20.158 18.6668 20.1435 18.6964 20.1296 18.7248C20.0511 18.8851 19.9934 19.003 19.8601 19.1586C19.8077 19.2198 19.7535 19.2857 19.6994 19.3517C19.5915 19.4831 19.4836 19.6145 19.3896 19.7081C19.2326 19.8645 19.0692 20.0341 19.2521 20.3481C19.4351 20.6621 20.0645 21.6891 20.9969 22.5208C21.9992 23.4148 22.8702 23.7926 23.3118 23.9841C23.398 24.0216 23.4678 24.0518 23.5191 24.0775C23.8326 24.2345 24.0156 24.2083 24.1985 23.999C24.3815 23.7897 24.9825 23.0832 25.1916 22.7692C25.4006 22.4554 25.6098 22.5076 25.8972 22.6123C26.1848 22.717 27.7267 23.4757 28.0404 23.6326C28.1016 23.6633 28.1588 23.691 28.2119 23.7166Z" fill="#CFA887"/>
</g>
</svg>
