<svg width="34" height="34" viewBox="0 0 34 34" fill="none" xmlns="http://www.w3.org/2000/svg">
<g id="icons / woman">
<path id="Path" d="M27.7667 25.84L22.3267 24.48L22.2133 23.12C26.0667 22.5533 27.9933 21.5333 28.1067 21.42C28.3333 21.3067 28.4467 21.1933 28.4467 20.9667C28.4467 20.74 28.3333 20.6267 28.22 20.5133C28.22 20.5133 25.0467 18.1333 25.0467 10.7667C25.0467 3.06 22.8933 1.36 21.08 1.36H20.6267C19.4933 0.453333 18.7 0 16.7733 0C14.28 0 9.06667 2.72 9.06667 10.7667C9.06667 18.1333 5.89333 20.5133 5.89333 20.5133C5.78 20.6267 5.66667 20.8533 5.66667 20.9667C5.66667 21.08 5.78 21.3067 6.00667 21.42C6.12 21.42 7.93333 22.44 11.7867 23.12L11.4467 24.48L5.89333 25.84C2.38 26.7467 0 29.8067 0 33.4333C0 33.7733 0.226667 34 0.566667 34H33.4333C33.7733 34 34 33.7733 34 33.4333C34 29.92 31.3933 26.7467 27.7667 25.84Z" fill="#432711"/>
</g>
</svg>
