<svg width="20" height="20" viewBox="0 0 20 20" fill="none" xmlns="http://www.w3.org/2000/svg">
<g id="_&#208;&#161;&#208;&#187;&#208;&#190;&#208;&#185;_1" clip-path="url(#clip0_220_4953)">
<path id="Vector" fill-rule="evenodd" clip-rule="evenodd" d="M8.29418 0.146085C10.2668 -0.197333 12.3416 0.0684075 14.1619 0.904466C16.3257 1.88157 18.1112 3.66203 19.0914 5.82577C20.0685 7.92511 20.2576 10.3699 19.6586 12.6021C18.9984 15.1072 17.313 17.319 15.0777 18.6211C12.825 19.9621 10.0338 20.3433 7.499 19.6841C5.17275 19.0933 3.07954 17.6277 1.73449 15.6377C0.294381 13.5435 -0.286159 10.882 0.132893 8.37687C0.435428 6.48603 1.30215 4.69331 2.59303 3.27977C4.06891 1.6373 6.11511 0.514033 8.29418 0.146085ZM8.64986 1.81105C5.86368 2.24543 3.39025 4.21804 2.33138 6.8274C1.51167 8.76322 1.48101 11.0128 2.24961 12.9711C3.07239 15.1348 4.8416 16.9225 7.00943 17.7411C8.86858 18.4791 11.0027 18.4893 12.8741 17.7871C15.0286 17.0001 16.8214 15.2759 17.6779 13.1489C18.3412 11.5668 18.4751 9.77405 18.0826 8.105C17.6411 6.2254 16.525 4.5032 14.9663 3.35745C13.1899 2.01342 10.8443 1.42062 8.64782 1.81207L8.64986 1.81105ZM7.27006 5.62851C6.33792 6.59437 6.18154 8.0866 6.55767 9.32945C6.91131 10.4323 7.86286 11.1712 8.76535 11.8233C7.8741 13.0825 6.97263 14.3346 6.08342 15.5958C6.83261 15.5958 7.58179 15.5917 8.32995 15.6009C9.28355 14.216 10.1963 12.8045 11.1693 11.4339C10.2699 10.7001 9.03723 10.2452 8.55276 9.11072C8.22979 8.23787 8.18992 7.03795 9.00759 6.41448C9.80992 5.75422 10.9117 5.89629 11.8786 5.88096C11.8817 9.11992 11.8796 12.3579 11.8796 15.5958C12.5348 15.5927 13.1889 15.5958 13.8441 15.5948C13.843 11.8581 13.8471 8.11931 13.843 4.38259C12.8322 4.40815 11.8193 4.39793 10.8085 4.39384C9.54827 4.42654 8.1889 4.69637 7.27108 5.62748L7.27006 5.62851Z" fill="#432711"/>
</g>
<defs>
<clipPath id="clip0_220_4953">
<rect width="20" height="20" fill="white"/>
</clipPath>
</defs>
</svg>
